# AST/ASF file generated using VICON BodyLanguage
# -----------------------------------------------
:version 1.10
:name VICON
:units
  mass 1.0
  length 0.45
  angle deg
:documentation
   .ast/.asf automatically generated from VICON data using
   VICON BodyBuilder and BodyLanguage model FoxedUp or BRILLIANT.MOD
:root
   order TX TY TZ RX RY RZ
   axis XYZ
   position 0 0 0  
   orientation 0 0 0 
:bonedata
  begin
     id 1 
     name lhipjoint
     direction 0.710188 -0.616876 0.339259 
     length 2.5669 
     axis 0 0 0  XYZ
  end
  begin
     id 2 
     name lfemur
     direction 0.34202 -0.939693 0  
     length 7.12796  
     axis 0 0 20  XYZ
    dof rx ry rz
    limits (-160.0 20.0)
           (-70.0 70.0)
           (-60.0 70.0)
  end
  begin
     id 3 
     name ltibia
     direction 0.34202 -0.939693 0   
     length 7.58108   
     axis 0 0 20   XYZ
    dof rx
    limits (-10.0 170.0)
  end
  begin
     id 4 
     name lfoot
     direction 0.0669471 -0.183936 0.980656   
     length 2.17365   
     axis -90 7.62852e-016 20   XYZ
    dof rx rz
    limits (-45.0 90.0)
           (-70.0 20.0)
  end
  begin
     id 5 
     name ltoes
     direction 1.53508e-011 -4.21705e-011 1   
     length 1.09427   
     axis -90 7.62852e-016 20   XYZ
    dof rx
    limits (-90.0 20.0)
  end
  begin
     id 6 
     name rhipjoint
     direction -0.700191 -0.625589 0.34405   
     length 2.53115  
     axis 0 0 0  XYZ 
  end
  begin
     id 7 
     name rfemur
     direction -0.34202 -0.939693 0   
     length 7.33006   
     axis 0 0 -20   XYZ
    dof rx ry rz
    limits (-160.0 20.0)
           (-70.0 70.0)
           (-70.0 60.0)
  end
  begin
     id 8 
     name rtibia
     direction -0.34202 -0.939693 0   
     length 7.64926   
     axis 0 0 -20   XYZ
    dof rx
    limits (-10.0 170.0)
 end
 begin
     id 9 
     name rfoot
     direction -0.0688927 -0.189281 0.979503   
     length 2.20493  
     axis -90 -7.62852e-016 -20   XYZ
    dof rx rz
    limits (-45.0 90.0)
           (-20.0 70.0)
  end
  begin
     id 10 
     name rtoes
     direction -1.53567e-011 -4.21933e-011 1   
     length 1.10919   
     axis -90 -7.62852e-016 -20   XYZ
    dof rx
    limits (-90.0 20.0)
  end
  begin
     id 11 
     name lowerback
     direction -0.0167868 0.989873 -0.140959   
     length 2.14596   
     axis 0 0 0   XYZ
    dof rx ry rz
    limits (-20.0 45.0)
           (-30.0 30.0)
           (-30.0 30.0)
  end
  begin
     id 12 
     name upperback
     direction 0.0129109 0.998033 0.0613525   
     length 2.10457   
     axis 0 0 0   XYZ
    dof rx ry rz
    limits (-20.0 45.0)
           (-30.0 30.0)
           (-30.0 30.0)
  end
  begin
     id 13 
     name thorax
     direction 0.0177047 0.991119 0.131797   
     length 2.17652   
     axis 0 0 0   XYZ
    dof rx ry rz
    limits (-20.0 45.0)
           (-30.0 30.0)
           (-30.0 30.0)
  end
  begin
     id 14 
     name lowerneck
     direction -0.0336893 0.997548 0.0613464   
     length 1.8912   
     axis 0 0 0   XYZ
    dof rx ry rz
    limits (-20.0 45.0)
           (-30.0 30.0)
           (-30.0 30.0)
  end
  begin
     id 15 
     name upperneck
     direction 0.0435909 0.997179 -0.0611028   
     length 1.8829   
     axis 0 0 0   XYZ
    dof rx ry rz
    limits (-20.0 45.0)
           (-30.0 30.0)
           (-30.0 30.0)
  end
  begin
     id 16
     name head
     direction 0.0175076 0.999444 -0.0283782  
     length 1.93197  
     axis 0 0 0   XYZ
    dof rx ry rz
    limits (-20.0 45.0)
           (-30.0 30.0)
           (-30.0 30.0)
  end
  begin
     id 17 
     name lclavicle
     direction 0.919164 0.389875 0.0559876  
     length 3.60004  
     axis 0 0 0   XYZ
    dof ry rz
    limits (-20.0 10.0)
           (0.0 20.0)
  end
  begin
     id 18 
     name lhumerus
     direction 1 -4.48958e-011 6.89191e-027   
     length 5.43301   
     axis 180 -30 -90   XYZ
    dof rx ry rz
    limits (-60.0 90.0)
           (-90.0 90.0)
           (-90.0 90.0)
  end
  begin
     id 19
     name lradius
     direction 1 -4.4897e-011 3.24727e-027   
     length 3.15936   
     axis 180 -30 -90   XYZ
    dof rx
    limits (-10.0 170.0)
  end
  begin
     id 20
     name lwrist
     direction 1 -4.4897e-011 9.00228e-027   
     length 1.57968   
     axis -6.29373e-015 90 90   XYZ
    dof ry
    limits (-180.0 0.0)
 end
  begin
     id 21 
     name lhand
     direction 1 -4.48968e-011 1.80042e-026   
     length 0.712827   
     axis -1.14882e-014 90 90   XYZ
    dof rx rz
    limits (-90.0 90.0)
           (-45.0 45.0)
  end
  begin
     id 22 
     name lfingers
     direction 1 -4.49019e-011 3.60267e-026   
     length 0.574699   
     axis -2.29769e-014 90 90   XYZ
    dof rx
    limits (0.0 90.0)
  end
  begin
     id 23
     name lthumb
     direction 0.707107 -6.3498e-011 0.707107   
     length 0.825157   
     axis -90 45 5.37419e-014   XYZ
    dof rx rz
    limits (-45.0 45.0)
           (-45.0 45.0)
  end
  begin
     id 24 
     name rclavicle
     direction -0.890334 0.455305 -0.00132111   
     length 3.51494  
     axis 0 0 0   XYZ 
    dof ry rz
    limits (-10.0 20.0)
           (-20.0 0.0)
  end
  begin
     id 25 
     name rhumerus
     direction -1 -4.48967e-011 5.07175e-028  
     length 5.34194   
     axis 180 30 90   XYZ
    dof rx ry rz
    limits (-90.0 60.0)
           (-90.0 90.0)
           (-90.0 90.0)
  end
  begin
     id 26 
     name rradius
     direction -1 -4.48955e-011 3.30467e-027   
     length 3.19351   
     axis 180 30 90   XYZ
    dof rx
    limits (-10.0 170.0)
  end
  begin
     id 27 
     name rwrist
     direction -1 -4.48968e-011 9.00208e-027   
     length 1.59676   
     axis -6.29373e-015 -90 -90   XYZ
    dof ry
    limits (-180.0 0.0)
  end
  begin
     id 28
     name rhand
     direction -1 -4.49e-011 1.80099e-026   
     length 0.743862   
     axis -1.14882e-014 -90 -90   XYZ
    dof rx rz
    limits (-90.0 90.0)
           (-45.0 45.0)
  end
  begin
     id 29
     name rfingers
     direction -1 -4.49009e-011 3.6023e-026   
     length 0.599721   
     axis -2.29769e-014 -90 -90   XYZ
    dof rx
    limits (0.0 90.0)
  end
  begin
     id 30
     name rthumb
     direction -0.707107 -6.35025e-011 0.707107   
     length 0.861083   
     axis -90 -45 -5.37419e-014   XYZ
    dof rx rz
    limits (-45.0 45.0)
           (-45.0 45.0)
  end
:hierarchy
  begin
    root lhipjoint rhipjoint lowerback
    lhipjoint lfemur
    lfemur ltibia
    ltibia lfoot
    lfoot ltoes
    rhipjoint rfemur
    rfemur rtibia
    rtibia rfoot
    rfoot rtoes
    lowerback upperback
    upperback thorax
    thorax lowerneck lclavicle rclavicle
    lowerneck upperneck
    upperneck head
    lclavicle lhumerus
    lhumerus lradius
    lradius lwrist
    lwrist lhand lthumb
    lhand lfingers
    rclavicle rhumerus
    rhumerus rradius
    rradius rwrist
    rwrist rhand rthumb
    rhand rfingers
  end

#!OML:ASF H:\Martial Arts Walks\Project 1\Capture day 1\Session 1\male.ASF
:FULLY-SPECIFIED
:DEGREES
344
root -2.48269 14.0201 -20.2545 4.58361 25.4222 7.72813
lowerback 17.0557 0.131404 -11.9462
upperback -1.01131 -2.27378 -0.0682585
thorax -10.3208 -0.412957 7.29326
lowerneck -0.61476 -10.0825 -10.3997
upperneck 6.13386 -13.7869 8.86544
head 3.26166 -6.86127 3.76357
rclavicle 2.49226e-014 -4.96962e-015
rhumerus -31.38 12.7693 -71.4486
rradius 47.1296
rwrist 8.14859
rhand -2.80033 -41.1476
rfingers 7.12502
rthumb 22.9056 -69.807
lclavicle 2.49226e-014 -4.96962e-015
lhumerus -23.8294 -13.7017 89.3254
lradius 31.9314
lwrist -6.97018
lhand -20.3926 27.0614
lfingers 7.12502
lthumb 5.96079 56.9575
rfemur -61.6444 -26.8362 8.56655
rtibia 73.4232
rfoot -12.3094 10.2014
rtoes -2.28414
lfemur 11.1235 8.99474 -9.58106
ltibia 41.2408
lfoot -30.2791 32.7079
ltoes -19.0874
345
root -2.48405 14.0109 -20.2431 4.7534 25.3971 7.83868
lowerback 17.1925 0.180752 -12.033
upperback -1.03877 -2.24756 -0.0663931
thorax -10.4341 -0.386221 7.34467
lowerneck -0.680218 -10.0937 -10.3978
upperneck 6.06937 -13.7927 8.86982
head 3.25371 -6.8625 3.76208
rclavicle -2.7308e-014 7.95139e-015
rhumerus -31.387 12.6867 -71.3395
rradius 47.1284
rwrist 7.9298
rhand -2.59647 -41.1371
rfingers 7.12502
rthumb 23.1012 -69.7722
lclavicle -2.7308e-014 7.95139e-015
lhumerus -23.5969 -14.0817 89.3848
lradius 31.9618
lwrist -7.20603
lhand -19.9675 26.3799
lfingers 7.12502
lthumb 6.37119 56.2641
rfemur -61.8778 -26.788 8.52197
rtibia 73.6407
rfoot -12.9249 9.27898
rtoes -5.12057
lfemur 11.1087 8.98449 -9.65262
ltibia 41.1559
lfoot -30.3465 32.6479
ltoes -19.4544
346
root -2.48661 14.0025 -20.2302 4.93799 25.3498 7.86152
lowerback 17.3026 0.220601 -12.0463
upperback -1.09418 -2.2161 -0.0506001
thorax -10.5668 -0.358242 7.36819
lowerneck -0.743595 -10.1027 -10.3976
upperneck 6.05294 -13.7994 8.88838
head 3.26106 -6.86373 3.76394
rclavicle 1.20513e-014 -4.77083e-015
rhumerus -31.3234 12.6178 -71.2379
rradius 47.0119
rwrist 7.84224
rhand -2.43422 -40.8917
rfingers 7.12502
rthumb 23.2569 -69.5072
lclavicle 1.20513e-014 -4.77083e-015
lhumerus -23.4109 -14.4968 89.4261
lradius 32.0477
lwrist -7.51655
lhand -19.6796 25.4205
lfingers 7.12502
lthumb 6.64911 55.2961
rfemur -62.1785 -26.6874 8.61012
rtibia 73.874
rfoot -13.4211 8.37802
rtoes -7.38896
lfemur 11.0483 9.0509 -9.6153
ltibia 41.0504
lfoot -30.3061 32.6111
ltoes -20.0717
347
root -2.49013 13.9923 -20.2147 5.08474 25.3072 7.87544
lowerback 17.4266 0.256017 -12.0436
upperback -1.09347 -2.18407 -0.0315995
thorax -10.6436 -0.336982 7.38529
lowerneck -0.872099 -10.1235 -10.425
upperneck 6.0012 -13.8155 8.93248
head 3.27304 -6.86794 3.77389
rclavicle -1.2275e-014 4.37326e-015
rhumerus -31.1777 12.567 -71.1269
rradius 46.8884
rwrist 7.71273
rhand -2.22162 -40.9109
rfingers 7.12502
rthumb 23.4608 -69.5005
lclavicle -1.2275e-014 4.37326e-015
lhumerus -23.0804 -14.8574 89.4317
lradius 32.0845
lwrist -7.94166
lhand -18.6543 25.6554
lfingers 7.12502
lthumb 7.63879 55.4975
rfemur -62.4469 -26.594 8.70224
rtibia 74.1584
rfoot -13.8332 7.54775
rtoes -8.92115
lfemur 11.0459 9.10711 -9.54874
ltibia 40.9196
lfoot -30.196 32.6076
ltoes -20.6823
348
root -2.49465 13.9835 -20.1959 5.20292 25.2476 7.85764
lowerback 17.5811 0.288752 -12.0156
upperback -1.0874 -2.15409 -0.0127351
thorax -10.732 -0.317524 7.38941
lowerneck -0.992659 -10.1394 -10.3892
upperneck 5.91903 -13.8218 8.92441
head 3.26559 -6.86773 3.76114
rclavicle 1.05604e-014 -7.95139e-016
rhumerus -31.0418 12.4672 -71.02
rradius 46.8081
rwrist 7.62487
rhand -2.04515 -40.8096
rfingers 7.12502
rthumb 23.6301 -69.3775
lclavicle 1.05604e-014 -7.95139e-016
lhumerus -22.7483 -15.2761 89.4155
lradius 32.1297
lwrist -8.33189
lhand -17.0206 27.0398
lfingers 7.12502
lthumb 9.21545 56.8184
rfemur -62.6998 -26.4989 8.84124
rtibia 74.4672
rfoot -14.225 6.75254
rtoes -9.96503
lfemur 11.0782 9.1977 -9.4305
ltibia 40.7762
lfoot -30.0579 32.6107
ltoes -21.1825
349
root -2.50051 13.9724 -20.1756 5.30488 25.1672 7.85708
lowerback 17.7757 0.332143 -12.0023
upperback -1.08435 -2.12128 -0.0165948
thorax -10.848 -0.294533 7.37697
lowerneck -1.03917 -10.1482 -10.3808
upperneck 5.81443 -13.8307 9.01679
head 3.2486 -6.86871 3.78658
rclavicle -2.90474e-014 1.27222e-014
rhumerus -30.8312 12.4062 -70.9541
rradius 46.5768
rwrist 7.59699
rhand -1.76045 -40.7341
rfingers 7.12502
rthumb 23.9031 -69.2665
lclavicle -2.90474e-014 1.27222e-014
lhumerus -22.3928 -15.7572 89.3705
lradius 32.1401
lwrist -8.60671
lhand -16.4104 26.8583
lfingers 7.12502
lthumb 9.80417 56.6101
rfemur -62.9457 -26.3932 8.95852
rtibia 74.8144
rfoot -14.5591 6.00799
rtoes -10.7932
lfemur 11.1523 9.32482 -9.30913
ltibia 40.6228
lfoot -29.9644 32.5537
ltoes -21.5958
350
root -2.50718 13.961 -20.152 5.42072 25.1437 7.86584
lowerback 17.9794 0.348121 -11.9365
upperback -1.07639 -2.11647 -0.0413995
thorax -10.9597 -0.289107 7.31812
lowerneck -1.06088 -10.1712 -10.3173
upperneck 5.66426 -13.8544 9.0392
head 3.2066 -6.87878 3.78473
rclavicle 4.6292e-014 -4.77083e-015
rhumerus -30.6065 12.2782 -70.8969
rradius 46.3443
rwrist 7.59694
rhand -1.54867 -40.788
rfingers 7.12502
rthumb 24.1062 -69.2936
lclavicle 4.6292e-014 -4.77083e-015
lhumerus -21.93 -16.2486 89.3023
lradius 32.0426
lwrist -8.85405
lhand -15.9648 26.6055
lfingers 7.12502
lthumb 10.2341 56.3366
rfemur -63.1831 -26.3524 9.0686
rtibia 75.1872
rfoot -14.8736 5.15419
rtoes -12.1907
lfemur 11.221 9.40876 -9.17323
ltibia 40.4594
lfoot -29.9748 32.3952
ltoes -21.7553
351
root -2.51494 13.9511 -20.1257 5.52053 25.1372 7.81592
lowerback 18.1857 0.340217 -11.8332
upperback -1.05126 -2.12872 -0.0192595
thorax -11.0483 -0.294632 7.29533
lowerneck -1.1369 -10.1697 -10.3576
upperneck 5.52034 -13.8421 9.12465
head 3.18349 -6.87 3.81602
rclavicle 6.43814e-014 2.96189e-014
rhumerus -30.3493 12.2192 -70.8056
rradius 46.1397
rwrist 7.66369
rhand -1.3078 -40.7564
rfingers 7.12502
rthumb 24.3372 -69.2312
lclavicle 6.43814e-014 2.96189e-014
lhumerus -21.3982 -16.7101 89.2355
lradius 31.9396
lwrist -8.95439
lhand -15.5395 26.3672
lfingers 7.12502
lthumb 10.6444 56.0776
rfemur -63.4142 -26.3334 9.24665
rtibia 75.583
rfoot -15.1625 4.28152
rtoes -13.042
lfemur 11.2744 9.51757 -8.96329
ltibia 40.2964
lfoot -29.8732 32.3296
ltoes -22.0825
352
root -2.52212 13.9407 -20.0958 5.62656 25.2039 7.78762
lowerback 18.4631 0.315657 -11.6658
upperback -1.0548 -2.16468 -0.0365184
thorax -11.209 -0.310347 7.20108
lowerneck -1.15485 -10.1802 -10.329
upperneck 5.36783 -13.8512 9.19153
head 3.14439 -6.87259 3.83373
rclavicle 5.56349e-014 1.64991e-014
rhumerus -30.1553 12.0996 -70.746
rradius 45.9363
rwrist 7.7263
rhand -1.09192 -40.7308
rfingers 7.12502
rthumb 24.5441 -69.1777
lclavicle 5.56349e-014 1.64991e-014
lhumerus -20.8021 -17.2261 89.1508
lradius 31.7349
lwrist -8.98646
lhand -15.1427 26.1199
lfingers 7.12502
lthumb 11.0271 55.8102
rfemur -63.6095 -26.4194 9.39478
rtibia 76.0001
rfoot -15.3955 3.47308
rtoes -12.988
lfemur 11.3363 9.57976 -8.75894
ltibia 40.0942
lfoot -29.7024 32.2844
ltoes -22.2691
353
root -2.52996 13.9311 -20.0625 5.77224 25.295 7.75582
lowerback 18.6892 0.274389 -11.4847
upperback -1.03958 -2.20792 -0.0338581
thorax -11.3167 -0.334243 7.12124
lowerneck -1.23608 -10.1929 -10.3179
upperneck 5.22567 -13.855 9.2223
head 3.11682 -6.8721 3.83992
rclavicle -1.34776e-013 1.45113e-014
rhumerus -29.893 11.9928 -70.649
rradius 45.7152
rwrist 7.76289
rhand -1.00671 -40.7154
rfingers 7.12502
rthumb 24.6258 -69.1512
lclavicle -1.34776e-013 1.45113e-014
lhumerus -20.0677 -17.6646 89.0612
lradius 31.475
lwrist -9.02503
lhand -14.7038 26.1659
lfingers 7.12502
lthumb 11.4504 55.8332
rfemur -63.8258 -26.55 9.56739
rtibia 76.4559
rfoot -15.4225 2.39103
rtoes -11.3432
lfemur 11.3656 9.62349 -8.54506
ltibia 39.87
lfoot -29.5844 32.1702
ltoes -22.4208
354
root -2.53866 13.9284 -20.0221 5.94612 25.4672 7.71808
lowerback 18.9021 0.210119 -11.2575
upperback -1.04161 -2.27082 -0.0398104
thorax -11.4347 -0.369283 7.01078
lowerneck -1.30113 -10.2078 -10.3121
upperneck 5.10854 -13.8665 9.28003
head 3.09719 -6.87515 3.85458
rclavicle -4.76338e-014 -5.56597e-015
rhumerus -29.6907 11.8791 -70.564
rradius 45.5383
rwrist 7.78485
rhand -0.984862 -40.781
rfingers 7.12502
rthumb 24.6467 -69.2139
lclavicle -4.76338e-014 -5.56597e-015
lhumerus -19.3524 -18.1735 88.9688
lradius 31.2691
lwrist -8.98397
lhand -14.3061 26.2607
lfingers 7.12502
lthumb 11.834 55.9063
rfemur -64.0467 -26.7873 9.77191
rtibia 76.9341
rfoot -15.4292 0.897538
rtoes -9.86253
lfemur 11.4035 9.57234 -8.322
ltibia 39.5636
lfoot -29.5298 31.9782
ltoes -22.4637
355
root -2.54773 13.9198 -19.9796 6.21708 25.6332 7.75216
lowerback 19.0976 0.144512 -11.0741
upperback -1.06788 -2.34406 -0.0459324
thorax -11.5679 -0.404725 6.92799
lowerneck -1.39745 -10.2234 -10.2832
upperneck 4.99256 -13.872 9.26925
head 3.0759 -6.87569 3.84434
rclavicle -3.78188e-014 2.42517e-014
rhumerus -29.4916 11.7959 -70.4466
rradius 45.3703
rwrist 7.77296
rhand -0.918615 -40.7179
rfingers 7.12502
rthumb 24.7102 -69.1421
lclavicle -3.78188e-014 2.42517e-014
lhumerus -18.5756 -18.5901 88.8857
lradius 31.0327
lwrist -9.00404
lhand -13.7962 26.6579
lfingers 7.12502
lthumb 12.3256 56.2746
rfemur -64.3149 -27.083 9.95387
rtibia 77.4577
rfoot -15.3024 -0.934371
rtoes -9.53143
lfemur 11.4093 9.49674 -8.18821
ltibia 39.188
lfoot -29.5213 31.7241
ltoes -22.4342
356
root -2.55911 13.9169 -19.9286 6.55097 25.7915 7.75313
lowerback 19.2105 0.0724084 -10.8642
upperback -1.11406 -2.41015 -0.0533393
thorax -11.6796 -0.439663 6.82404
lowerneck -1.52123 -10.2445 -10.2408
upperneck 4.91048 -13.8848 9.25241
head 3.06856 -6.87885 3.82746
rclavicle 5.48646e-014 3.77691e-015
rhumerus -29.3322 11.6916 -70.3457
rradius 45.2496
rwrist 7.78655
rhand -0.726138 -40.9535
rfingers 7.12502
rthumb 24.8947 -69.3524
lclavicle 5.48646e-014 3.77691e-015
lhumerus -17.781 -18.9393 88.782
lradius 30.8174
lwrist -9.084
lhand -13.2012 27.2037
lfingers 7.12502
lthumb 12.8993 56.7851
rfemur -64.7007 -27.3782 10.2426
rtibia 77.9976
rfoot -15.0926 -2.90849
rtoes -8.0088
lfemur 11.3816 9.45948 -8.01218
ltibia 38.7218
lfoot -29.2615 31.6092
ltoes -22.7192
